<svg xmlns="http://www.w3.org/2000/svg" width="1308.833pt" height="150pt" fill-rule="evenodd" viewBox="0 0 1308.833 150"><path d="M142.735 410.764v-.13c4.891-1.225 8.019-4.43 8.019-10.465 0-8.631-7.545-11.285-15.896-11.285h-16.169v18.422h-9.944v7.524h9.944v19.31h15.962c10.329 0 17.939-3.331 17.939-12.508 0-6.521-4.553-10.053-9.855-10.868m-13.241-13.584h4.135c4.223 0 6.392 1.496 6.392 4.887 0 3.54-2.04 5.157-6.654 5.157h-3.873zm4.615 28.666h-4.615v-10.937h5.023c4.756 0 7.002 1.762 7.002 5.573 0 3.866-2.726 5.364-7.41 5.364m26.493 8.294h11.08v-45.256h-11.08zm-50.451-41.894-8.02-4.849-16.875 20.441v-18.954h-11.01v45.256h11.01v-20.792l14.2 20.792h12.841l-16.785-24.396Zm81.66 32.991 19.559-29.42v-6.933h-31.995v8.908h18.678l-19.428 29.277 5.289 7.071h27.999v-8.903z" style="fill:#d03042;stroke:none" transform="matrix(2.96836 0 0 2.96836 -220.39 -1149.65)"/><path d="M228.843 427.472c0-1.417.298-2.705.884-3.853a9.992 9.992 0 0 1 2.305-3.009 12.163 12.163 0 0 1 3.3-2.066 16.007 16.007 0 0 1 3.88-1.117v-4.146h-16.905v-4.31h39.278v4.31h-16.958v4.146a17.88 17.88 0 0 1 3.934.983 12.718 12.718 0 0 1 3.458 1.937 9.442 9.442 0 0 1 2.417 3.033c.617 1.203.962 2.601 1.038 4.196 0 1.736-.381 3.241-1.145 4.519a10.111 10.111 0 0 1-3.004 3.187 14.267 14.267 0 0 1-4.304 1.913c-1.589.423-3.224.64-4.889.64-1.59 0-3.182-.196-4.751-.586-1.582-.392-2.993-1.012-4.23-1.859a10.38 10.38 0 0 1-3.053-3.242c-.8-1.311-1.22-2.871-1.255-4.676m-2.866-24.397a40.34 40.34 0 0 0 2.919-1.912 50.264 50.264 0 0 0 3.297-2.553 34.527 34.527 0 0 0 3.081-2.793c.959-.97 1.702-1.901 2.23-2.786h-11.212v-4.147h31.52v4.147h-11.108l11.316 10.417-3.448 3.505-12.545-11.369c-1.561 1.877-3.135 3.524-4.728 4.943-1.599 1.418-3.031 2.6-4.311 3.561-1.309.953-2.37 1.677-3.187 2.173-.811.499-1.237.766-1.274.801zm24.239 24.501c0-1.061-.236-1.97-.695-2.735a5.983 5.983 0 0 0-1.804-1.893 9.66 9.66 0 0 0-2.633-1.033 13.076 13.076 0 0 0-2.952-.348c-.924 0-1.862.11-2.814.321a8.844 8.844 0 0 0-2.607 1.012 6.284 6.284 0 0 0-1.911 1.885c-.501.762-.744 1.695-.744 2.791 0 1.031.236 1.922.717 2.687a6.032 6.032 0 0 0 1.884 1.885c.745.496 1.603.856 2.58 1.089.973.23 1.94.343 2.895.343.923 0 1.861-.107 2.819-.317a9 9 0 0 0 2.608-1.007 6.214 6.214 0 0 0 1.907-1.892c.5-.763.75-1.686.75-2.788M286.991 424.92h17.056v4.249h-39.275v-4.249h16.902v-11.963h5.317zm-20.252-15.199c2.978-2.268 5.437-4.579 7.39-6.937 1.945-2.358 3.49-4.491 4.621-6.405 1.349-2.229 2.392-4.391 3.139-6.488h5.045l15.207 20.257-3.883 3.133a634.527 634.527 0 0 1-6.14-8.027 416.465 416.465 0 0 1-4.012-5.421c-1.204-1.664-2.183-3.009-2.926-4.041-1.485 2.657-3.1 5.048-4.831 7.175-1.741 2.128-3.35 3.952-4.842 5.474a56.86 56.86 0 0 1-5.204 4.733zM309.743 421.286a78.912 78.912 0 0 0 3.881-8.182 90.569 90.569 0 0 0 1.486-3.905 64.14 64.14 0 0 0 1.384-4.389c.393-1.49.737-3.012 1.04-4.572.299-1.558.503-3.134.611-4.727h-15.786v-4.413h21.311c-.069 2.979-.427 6.2-1.063 9.674-.565 2.976-1.492 6.415-2.765 10.308-1.277 3.903-3.131 8.009-5.58 12.329zm22.218-33.322h5.319v45.441h-5.319zM375.758 388.018h5.31v25.776h-5.31v-11.429h-8.457c-.141 1.56-.539 2.979-1.195 4.255a10.407 10.407 0 0 1-2.575 3.243c-1.064.924-2.303 1.637-3.721 2.149-1.418.52-2.963.77-4.626.77-1.662 0-3.231-.269-4.703-.792a11.073 11.073 0 0 1-3.851-2.342c-1.135-.993-2.03-2.211-2.688-3.668-.656-1.453-.981-3.093-.981-4.946 0-1.694.311-3.254.932-4.675a11.036 11.036 0 0 1 2.576-3.667c1.065-1.026 2.338-1.821 3.828-2.39 1.489-.568 3.113-.851 4.887-.851 2.835 0 5.328.753 7.469 2.259 2.146 1.507 3.569 3.592 4.28 6.246h8.825zm-27.537 13.126c0 .992.161 1.944.48 2.843.322.909.78 1.697 1.384 2.364.562.676 1.28 1.214 2.146 1.622.872.409 1.853.615 2.953.615 1.034 0 1.972-.2 2.816-.587a6.456 6.456 0 0 0 2.177-1.595 6.748 6.748 0 0 0 1.411-2.312c.337-.902.507-1.887.507-2.95 0-2.087-.602-3.827-1.813-5.21-1.195-1.379-2.905-2.106-5.098-2.179-2.123 0-3.819.684-5.074 2.05-1.257 1.361-1.889 3.143-1.889 5.339m27.853 15.736h4.994v19.182h-27.372V416.88h4.944v5.469h17.434zm0 9.722H358.64v5.21h17.434zM395.188 427.472c0-1.417.293-2.705.872-3.853a10.295 10.295 0 0 1 2.317-3.009 12.222 12.222 0 0 1 3.294-2.066 16.227 16.227 0 0 1 3.878-1.117v-4.146h-16.898v-4.31h39.276v4.31H410.97v4.146c1.351.177 2.659.507 3.935.983a12.522 12.522 0 0 1 3.452 1.937c.993.816 1.797 1.829 2.421 3.033.617 1.203.961 2.601 1.037 4.196 0 1.736-.385 3.241-1.142 4.519a10.084 10.084 0 0 1-3.006 3.187 14.305 14.305 0 0 1-4.301 1.913c-1.601.423-3.228.64-4.893.64-1.593 0-3.18-.196-4.76-.586-1.571-.392-2.985-1.012-4.223-1.859a10.536 10.536 0 0 1-3.055-3.242c-.791-1.311-1.215-2.871-1.247-4.676m-2.871-24.397a39.054 39.054 0 0 0 2.923-1.912 48.618 48.618 0 0 0 3.29-2.553 34.063 34.063 0 0 0 3.087-2.793c.954-.97 1.707-1.901 2.235-2.786h-11.215v-4.147h31.515v4.147h-11.107l11.321 10.417-3.457 3.505-12.544-11.369c-1.557 1.877-3.129 3.524-4.728 4.943-1.593 1.418-3.029 2.6-4.308 3.561-1.31.953-2.371 1.677-3.188 2.173-.817.499-1.235.766-1.273.801zm24.234 24.501c0-1.061-.233-1.97-.695-2.735a5.905 5.905 0 0 0-1.8-1.893 9.602 9.602 0 0 0-2.632-1.033 13.06 13.06 0 0 0-2.951-.348c-.916 0-1.859.11-2.815.321a8.858 8.858 0 0 0-2.604 1.012 6.338 6.338 0 0 0-1.917 1.885c-.493.762-.737 1.695-.737 2.791 0 1.031.236 1.922.711 2.687a6.055 6.055 0 0 0 1.891 1.885c.742.496 1.602.856 2.576 1.089.975.23 1.938.343 2.895.343.924 0 1.862-.107 2.818-.317a8.821 8.821 0 0 0 2.602-1.007 6.154 6.154 0 0 0 1.915-1.892c.5-.763.743-1.686.743-2.788M443.113 412.804c-1.669 0-3.237-.265-4.702-.801-1.471-.531-2.761-1.307-3.854-2.336-1.135-.993-2.035-2.214-2.69-3.668-.654-1.451-.978-3.099-.978-4.944 0-1.696.3-3.263.902-4.703a10.762 10.762 0 0 1 2.548-3.699c1.102-1.024 2.395-1.819 3.885-2.391 1.491-.561 3.119-.845 4.889-.845 1.659 0 3.231.281 4.703.821a12.54 12.54 0 0 1 3.905 2.311c1.099 1.032 1.965 2.273 2.604 3.724.637 1.452.959 3.086.959 4.89 0 1.7-.302 3.257-.905 4.676-.606 1.419-1.436 2.64-2.496 3.665a11.186 11.186 0 0 1-3.88 2.447c-1.483.562-3.119.853-4.89.853m-6.96-11.695c0 .994.157 1.939.474 2.841a6.952 6.952 0 0 0 1.385 2.368c.562.673 1.278 1.214 2.152 1.618.868.413 1.853.615 2.949.615 1.025 0 1.966-.196 2.817-.591a6.53 6.53 0 0 0 2.177-1.59c.607-.64 1.072-1.405 1.411-2.307a8.569 8.569 0 0 0 .504-2.954c0-2.088-.601-3.817-1.807-5.183-1.204-1.363-2.908-2.098-5.102-2.201-2.127 0-3.823.678-5.076 2.042-1.259 1.362-1.884 3.14-1.884 5.342m31.144 25.833c0 1.768-.374 3.328-1.117 4.677a10.581 10.581 0 0 1-2.98 3.4 14.57 14.57 0 0 1-4.3 2.016 17.726 17.726 0 0 1-4.945.696c-1.597 0-3.189-.213-4.784-.643-1.592-.421-3.033-1.077-4.304-1.965a10.69 10.69 0 0 1-3.081-3.401c-.781-1.348-1.167-2.957-1.167-4.834 0-1.812.378-3.373 1.135-4.705a10.098 10.098 0 0 1 3.056-3.316c1.243-.892 2.661-1.557 4.255-2a20.287 20.287 0 0 1 4.95-.72c1.59 0 3.17.214 4.755.64a13.76 13.76 0 0 1 4.279 1.97 10.865 10.865 0 0 1 3.051 3.375c.797 1.359 1.197 2.965 1.197 4.81m-13.342 6.638c1.027 0 2.014-.129 2.952-.399a7.963 7.963 0 0 0 2.525-1.196 6.315 6.315 0 0 0 1.777-2.098c.441-.828.697-1.813.771-2.945-.074-1.102-.33-2.06-.771-2.873a6.748 6.748 0 0 0-1.729-2.075 8.527 8.527 0 0 0-2.547-1.221 11.986 11.986 0 0 0-3.029-.479c-.961 0-1.922.134-2.875.399a7.52 7.52 0 0 0-2.551 1.255 6.337 6.337 0 0 0-1.855 2.093c-.463.833-.693 1.799-.693 2.901 0 1.097.222 2.06.664 2.891a6.283 6.283 0 0 0 1.782 2.101c.743.532 1.593.938 2.548 1.226.959.28 1.966.42 3.031.42m13.181-33.909h7.064v4.417h-7.064v10.363h-5.209v-26.472h5.209zM503.483 405.264c0 1.384-.223 2.647-.667 3.801a9.832 9.832 0 0 1-1.834 3.053 10.658 10.658 0 0 1-2.87 2.208 12.517 12.517 0 0 1-3.557 1.252v6.322h13.07v4.464h-30.611V421.9h12.223v-6.218c-2.655-.393-4.85-1.454-6.588-3.186-1.736-1.739-2.642-4.165-2.709-7.281 0-1.704.298-3.194.902-4.468.603-1.274 1.469-2.48 2.607-3.618h-6.06v-4.092h11.583v-5.735h5.37v5.735h11.585v4.149h-5.898c.598.318 1.124.814 1.564 1.49.445.675.809 1.382 1.093 2.123.285.782.487 1.571.611 2.369.126.794.186 1.494.186 2.096m-18.449 0c.11 1.877.756 3.429 1.945 4.648 1.186 1.228 2.77 1.838 4.755 1.838 1.882 0 3.458-.588 4.732-1.756 1.28-1.17 1.909-2.76 1.909-4.779 0-1.951-.578-3.582-1.748-4.895-1.169-1.31-2.797-1.967-4.893-1.967-2.087 0-3.698.633-4.835 1.885-1.134 1.261-1.755 2.936-1.865 5.026m30.141 28.065h-5.317v-45.393h5.317z" style="fill:#5c5d5e;stroke:none" transform="matrix(2.96836 0 0 2.96836 -220.39 -1149.65)"/></svg>